<svg width="23" height="17" viewBox="0 0 23 17" fill="none" xmlns="http://www.w3.org/2000/svg">
<path fill-rule="evenodd" clip-rule="evenodd" d="M12.753 0.639319C12.3549 0.991943 12.3549 1.56166 12.7558 1.91188L17.3062 5.89748L17.4113 5.978C17.8131 6.24627 18.3867 6.21832 18.7517 5.89509C18.9508 5.71877 19.0503 5.48969 19.0503 5.2606C19.0503 5.02912 18.9508 4.79884 18.749 4.62252L14.1999 0.636921L14.0948 0.556685C13.6927 0.289328 13.118 0.317181 12.753 0.639319ZM1.1445 7.60728C0.640403 7.66282 0.25 8.04147 0.25 8.49982C0.25 8.99637 0.708182 9.39937 1.27273 9.39937H19.2509L12.7559 15.0881L12.664 15.18C12.3578 15.5318 12.3882 16.0374 12.7532 16.3607C13.1514 16.7121 13.7991 16.7133 14.1986 16.3631L22.4486 9.1367L22.5396 9.04621C22.678 8.88796 22.75 8.69472 22.75 8.49982C22.75 8.38348 22.7241 8.26714 22.6723 8.15679C22.5141 7.81976 22.1418 7.60027 21.7273 7.60027H1.27273L1.1445 7.60728Z" fill="#FEFEFE"/>
</svg>
